<?xml version="1.0" encoding="UTF-8"?>
<svg xmlns="http://www.w3.org/2000/svg" width="400" height="400" viewBox="0 0 400 400">
  <title>Leopard AI — Procedural Leopard Pattern</title>
  <desc>
    Generated deterministically from brand/tokens.json (SF-29 pipeline).
    base=#0F0F12 spot=#D4A24C ring=#6B4B1F  opacity=0.14  tile=400x400.
    Placeholder until a real leopard asset replaces it (see SF-30).
  </desc>
  <defs>
    <pattern id="leopard" x="0" y="0" width="400" height="400" patternUnits="userSpaceOnUse">
      <rect width="400" height="400" fill="#0F0F12"/>
      <g opacity="0.14">
        <g transform="rotate(50 159.39 177.84)">
          <circle cx="149.97" cy="188.7" r="4.6" fill="none" stroke="#6B4B1F" stroke-width="1.6"/>
          <circle cx="171.98" cy="183.87" r="6.73" fill="none" stroke="#6B4B1F" stroke-width="1.6"/>
          <circle cx="167.74" cy="164" r="4.33" fill="none" stroke="#6B4B1F" stroke-width="1.6"/>
          <ellipse cx="159.39" cy="177.84" rx="11.62" ry="10.72" fill="#D4A24C"/>
        </g>
        <g transform="rotate(124 204.38 171.21)">
          <circle cx="187.76" cy="167.06" r="5.22" fill="none" stroke="#6B4B1F" stroke-width="1.6"/>
          <circle cx="205.73" cy="186.52" r="5.03" fill="none" stroke="#6B4B1F" stroke-width="1.6"/>
          <circle cx="187.34" cy="168.98" r="4.22" fill="none" stroke="#6B4B1F" stroke-width="1.6"/>
          <ellipse cx="204.38" cy="171.21" rx="13.34" ry="10.95" fill="#D4A24C"/>
        </g>
        <g transform="rotate(179 240.57 355.62)">
          <circle cx="234.68" cy="336.08" r="6.28" fill="none" stroke="#6B4B1F" stroke-width="1.6"/>
          <circle cx="242.91" cy="374.78" r="3.66" fill="none" stroke="#6B4B1F" stroke-width="1.6"/>
          <circle cx="249.87" cy="337.48" r="5.48" fill="none" stroke="#6B4B1F" stroke-width="1.6"/>
          <ellipse cx="240.57" cy="355.62" rx="15.91" ry="13.45" fill="#D4A24C"/>
        </g>
        <g transform="rotate(84 252.71 213.31)">
          <circle cx="249.51" cy="191.83" r="3.75" fill="none" stroke="#6B4B1F" stroke-width="1.6"/>
          <circle cx="273.41" cy="213.12" r="5.7" fill="none" stroke="#6B4B1F" stroke-width="1.6"/>
          <circle cx="269.63" cy="226.29" r="3.65" fill="none" stroke="#6B4B1F" stroke-width="1.6"/>
          <circle cx="271.91" cy="201.48" r="5.04" fill="none" stroke="#6B4B1F" stroke-width="1.6"/>
          <ellipse cx="252.71" cy="213.31" rx="17.75" ry="18.14" fill="#D4A24C"/>
        </g>
        <g transform="rotate(14 395.3 175.95)">
          <circle cx="393.32" cy="193.98" r="4.7" fill="none" stroke="#6B4B1F" stroke-width="1.6"/>
          <circle cx="379.02" cy="184.78" r="4.84" fill="none" stroke="#6B4B1F" stroke-width="1.6"/>
          <circle cx="409.58" cy="166.57" r="5.23" fill="none" stroke="#6B4B1F" stroke-width="1.6"/>
          <circle cx="398.21" cy="193.93" r="4.5" fill="none" stroke="#6B4B1F" stroke-width="1.6"/>
          <circle cx="410.9" cy="184.86" r="5.43" fill="none" stroke="#6B4B1F" stroke-width="1.6"/>
          <ellipse cx="395.3" cy="175.95" rx="14.49" ry="10.49" fill="#D4A24C"/>
        </g>
        <g transform="rotate(41 48.38 197.92)">
          <circle cx="24.53" cy="193.61" r="3.04" fill="none" stroke="#6B4B1F" stroke-width="1.6"/>
          <circle cx="63.45" cy="176.5" r="3.97" fill="none" stroke="#6B4B1F" stroke-width="1.6"/>
          <circle cx="25.85" cy="206.35" r="3.53" fill="none" stroke="#6B4B1F" stroke-width="1.6"/>
          <ellipse cx="48.38" cy="197.92" rx="21.65" ry="16.9" fill="#D4A24C"/>
        </g>
        <g transform="rotate(23 233.97 270.58)">
          <circle cx="225.88" cy="292.68" r="4.28" fill="none" stroke="#6B4B1F" stroke-width="1.6"/>
          <circle cx="235.07" cy="294.32" r="3.41" fill="none" stroke="#6B4B1F" stroke-width="1.6"/>
          <circle cx="217.36" cy="254.06" r="4.11" fill="none" stroke="#6B4B1F" stroke-width="1.6"/>
          <circle cx="226.65" cy="248.81" r="3.26" fill="none" stroke="#6B4B1F" stroke-width="1.6"/>
          <circle cx="209.06" cy="272.07" r="6.63" fill="none" stroke="#6B4B1F" stroke-width="1.6"/>
          <ellipse cx="233.97" cy="270.58" rx="20.05" ry="20.2" fill="#D4A24C"/>
        </g>
        <g transform="rotate(139 88.34 378.1)">
          <circle cx="72.3" cy="368.48" r="6.69" fill="none" stroke="#6B4B1F" stroke-width="1.6"/>
          <circle cx="70.11" cy="385.56" r="3.33" fill="none" stroke="#6B4B1F" stroke-width="1.6"/>
          <circle cx="104.57" cy="367.57" r="5.79" fill="none" stroke="#6B4B1F" stroke-width="1.6"/>
          <circle cx="99.73" cy="391.12" r="6.73" fill="none" stroke="#6B4B1F" stroke-width="1.6"/>
          <ellipse cx="88.34" cy="378.1" rx="14.88" ry="13.58" fill="#D4A24C"/>
        </g>
        <g transform="rotate(107 173.09 216.89)">
          <circle cx="196.13" cy="217.61" r="3.15" fill="none" stroke="#6B4B1F" stroke-width="1.6"/>
          <circle cx="151.16" cy="207.02" r="3.09" fill="none" stroke="#6B4B1F" stroke-width="1.6"/>
          <circle cx="149.9" cy="215.79" r="4.31" fill="none" stroke="#6B4B1F" stroke-width="1.6"/>
          <circle cx="153.39" cy="202.1" r="3.77" fill="none" stroke="#6B4B1F" stroke-width="1.6"/>
          <ellipse cx="173.09" cy="216.89" rx="19.85" ry="18.42" fill="#D4A24C"/>
        </g>
        <g transform="rotate(79 359.4 141.47)">
          <circle cx="372.58" cy="152.25" r="6.43" fill="none" stroke="#6B4B1F" stroke-width="1.6"/>
          <circle cx="362.38" cy="123.06" r="4.36" fill="none" stroke="#6B4B1F" stroke-width="1.6"/>
          <circle cx="350.99" cy="158.55" r="5.01" fill="none" stroke="#6B4B1F" stroke-width="1.6"/>
          <circle cx="344.66" cy="130.71" r="5.54" fill="none" stroke="#6B4B1F" stroke-width="1.6"/>
          <ellipse cx="359.4" cy="141.47" rx="14.75" ry="14.35" fill="#D4A24C"/>
        </g>
        <g transform="rotate(162 30.35 51.75)">
          <circle cx="12.75" cy="42.33" r="5.73" fill="none" stroke="#6B4B1F" stroke-width="1.6"/>
          <circle cx="17.02" cy="39.8" r="6.89" fill="none" stroke="#6B4B1F" stroke-width="1.6"/>
          <circle cx="35.58" cy="70.41" r="5.78" fill="none" stroke="#6B4B1F" stroke-width="1.6"/>
          <circle cx="34.22" cy="33.33" r="3.56" fill="none" stroke="#6B4B1F" stroke-width="1.6"/>
          <circle cx="40.45" cy="35.8" r="5.52" fill="none" stroke="#6B4B1F" stroke-width="1.6"/>
          <ellipse cx="30.35" cy="51.75" rx="15.4" ry="14.48" fill="#D4A24C"/>
        </g>
        <g transform="rotate(117 398.08 306.21)">
          <circle cx="394.74" cy="282.9" r="4.73" fill="none" stroke="#6B4B1F" stroke-width="1.6"/>
          <circle cx="375.03" cy="301.92" r="5.83" fill="none" stroke="#6B4B1F" stroke-width="1.6"/>
          <circle cx="390.26" cy="284.63" r="6.6" fill="none" stroke="#6B4B1F" stroke-width="1.6"/>
          <circle cx="422.01" cy="300.98" r="5.57" fill="none" stroke="#6B4B1F" stroke-width="1.6"/>
          <ellipse cx="398.08" cy="306.21" rx="20.33" ry="19.43" fill="#D4A24C"/>
        </g>
        <g transform="rotate(75 61.96 104.7)">
          <circle cx="37.03" cy="99.83" r="3.11" fill="none" stroke="#6B4B1F" stroke-width="1.6"/>
          <circle cx="73.47" cy="128.66" r="4.39" fill="none" stroke="#6B4B1F" stroke-width="1.6"/>
          <circle cx="69.44" cy="79.27" r="6.36" fill="none" stroke="#6B4B1F" stroke-width="1.6"/>
          <ellipse cx="61.96" cy="104.7" rx="21.66" ry="21.16" fill="#D4A24C"/>
        </g>
        <g transform="rotate(2 295.74 79.77)">
          <circle cx="307.4" cy="71.49" r="6.12" fill="none" stroke="#6B4B1F" stroke-width="1.6"/>
          <circle cx="283.06" cy="84.45" r="3.46" fill="none" stroke="#6B4B1F" stroke-width="1.6"/>
          <circle cx="305.07" cy="70.15" r="5.52" fill="none" stroke="#6B4B1F" stroke-width="1.6"/>
          <circle cx="310.62" cy="83.24" r="4.56" fill="none" stroke="#6B4B1F" stroke-width="1.6"/>
          <circle cx="282.79" cy="75.04" r="5.15" fill="none" stroke="#6B4B1F" stroke-width="1.6"/>
          <ellipse cx="295.74" cy="79.77" rx="10.71" ry="10.98" fill="#D4A24C"/>
        </g>
        <g transform="rotate(158 276.3 364.21)">
          <circle cx="282.36" cy="381.73" r="6.78" fill="none" stroke="#6B4B1F" stroke-width="1.6"/>
          <circle cx="257.57" cy="356.28" r="4.53" fill="none" stroke="#6B4B1F" stroke-width="1.6"/>
          <circle cx="257.18" cy="355" r="6.05" fill="none" stroke="#6B4B1F" stroke-width="1.6"/>
          <circle cx="295.45" cy="366.31" r="5.52" fill="none" stroke="#6B4B1F" stroke-width="1.6"/>
          <circle cx="288.31" cy="379.97" r="5.6" fill="none" stroke="#6B4B1F" stroke-width="1.6"/>
          <ellipse cx="276.3" cy="364.21" rx="16.49" ry="12.72" fill="#D4A24C"/>
        </g>
        <g transform="rotate(121 170.42 13.76)">
          <circle cx="151.26" cy="21.89" r="6.67" fill="none" stroke="#6B4B1F" stroke-width="1.6"/>
          <circle cx="178.05" cy="33.84" r="4.09" fill="none" stroke="#6B4B1F" stroke-width="1.6"/>
          <circle cx="189.89" cy="4.81" r="3.53" fill="none" stroke="#6B4B1F" stroke-width="1.6"/>
          <ellipse cx="170.42" cy="13.76" rx="16.9" ry="17.15" fill="#D4A24C"/>
        </g>
        <g transform="rotate(97 78.14 27.13)">
          <circle cx="93.45" cy="19.08" r="5.94" fill="none" stroke="#6B4B1F" stroke-width="1.6"/>
          <circle cx="86.94" cy="41.26" r="6.61" fill="none" stroke="#6B4B1F" stroke-width="1.6"/>
          <circle cx="62.74" cy="35.64" r="4.57" fill="none" stroke="#6B4B1F" stroke-width="1.6"/>
          <circle cx="63.21" cy="15.86" r="4.97" fill="none" stroke="#6B4B1F" stroke-width="1.6"/>
          <ellipse cx="78.14" cy="27.13" rx="14.64" ry="11.46" fill="#D4A24C"/>
        </g>
        <g transform="rotate(145 342.65 103.64)">
          <circle cx="322.87" cy="96.99" r="3.16" fill="none" stroke="#6B4B1F" stroke-width="1.6"/>
          <circle cx="327.74" cy="116.19" r="3.92" fill="none" stroke="#6B4B1F" stroke-width="1.6"/>
          <circle cx="323.76" cy="97.85" r="6.24" fill="none" stroke="#6B4B1F" stroke-width="1.6"/>
          <circle cx="323.13" cy="99.76" r="4.99" fill="none" stroke="#6B4B1F" stroke-width="1.6"/>
          <circle cx="328.48" cy="117.58" r="6.44" fill="none" stroke="#6B4B1F" stroke-width="1.6"/>
          <ellipse cx="342.65" cy="103.64" rx="16.26" ry="16.31" fill="#D4A24C"/>
        </g>
        <g transform="rotate(174 90.68 138.33)">
          <circle cx="100.3" cy="119.48" r="4.81" fill="none" stroke="#6B4B1F" stroke-width="1.6"/>
          <circle cx="98.34" cy="159.35" r="5.07" fill="none" stroke="#6B4B1F" stroke-width="1.6"/>
          <circle cx="93.2" cy="116.4" r="6.57" fill="none" stroke="#6B4B1F" stroke-width="1.6"/>
          <circle cx="74.84" cy="150.46" r="6.75" fill="none" stroke="#6B4B1F" stroke-width="1.6"/>
          <circle cx="111.76" cy="139.24" r="5.37" fill="none" stroke="#6B4B1F" stroke-width="1.6"/>
          <ellipse cx="90.68" cy="138.33" rx="17.77" ry="15.14" fill="#D4A24C"/>
        </g>
        <g transform="rotate(100 128.25 102.01)">
          <circle cx="144.95" cy="103.86" r="4.15" fill="none" stroke="#6B4B1F" stroke-width="1.6"/>
          <circle cx="136.17" cy="89.35" r="3.46" fill="none" stroke="#6B4B1F" stroke-width="1.6"/>
          <circle cx="121.13" cy="115.82" r="4.95" fill="none" stroke="#6B4B1F" stroke-width="1.6"/>
          <circle cx="139.11" cy="88.73" r="6.26" fill="none" stroke="#6B4B1F" stroke-width="1.6"/>
          <circle cx="128.04" cy="118.06" r="6.32" fill="none" stroke="#6B4B1F" stroke-width="1.6"/>
          <ellipse cx="128.25" cy="102.01" rx="12.27" ry="9.81" fill="#D4A24C"/>
        </g>
        <g transform="rotate(174 329.7 267.34)">
          <circle cx="345.7" cy="277.63" r="4.29" fill="none" stroke="#6B4B1F" stroke-width="1.6"/>
          <circle cx="347.13" cy="276.68" r="5.9" fill="none" stroke="#6B4B1F" stroke-width="1.6"/>
          <circle cx="308.17" cy="267.78" r="4.09" fill="none" stroke="#6B4B1F" stroke-width="1.6"/>
          <circle cx="350.22" cy="269.85" r="5.41" fill="none" stroke="#6B4B1F" stroke-width="1.6"/>
          <ellipse cx="329.7" cy="267.34" rx="16.88" ry="12.64" fill="#D4A24C"/>
        </g>
        <g transform="rotate(170 94.23 284.82)">
          <circle cx="89.52" cy="268.79" r="3.54" fill="none" stroke="#6B4B1F" stroke-width="1.6"/>
          <circle cx="92.3" cy="268.44" r="5.06" fill="none" stroke="#6B4B1F" stroke-width="1.6"/>
          <circle cx="98.08" cy="301.59" r="3.61" fill="none" stroke="#6B4B1F" stroke-width="1.6"/>
          <circle cx="91.77" cy="301.84" r="4.04" fill="none" stroke="#6B4B1F" stroke-width="1.6"/>
          <ellipse cx="94.23" cy="284.82" rx="13.87" ry="11.91" fill="#D4A24C"/>
        </g>
        <g transform="rotate(21 174 119.1)">
          <circle cx="188.74" cy="130.04" r="4.55" fill="none" stroke="#6B4B1F" stroke-width="1.6"/>
          <circle cx="185.2" cy="104.35" r="6.15" fill="none" stroke="#6B4B1F" stroke-width="1.6"/>
          <circle cx="156.12" cy="122.55" r="5.89" fill="none" stroke="#6B4B1F" stroke-width="1.6"/>
          <circle cx="159.34" cy="105.43" r="6.09" fill="none" stroke="#6B4B1F" stroke-width="1.6"/>
          <circle cx="190.88" cy="113.31" r="5.3" fill="none" stroke="#6B4B1F" stroke-width="1.6"/>
          <ellipse cx="174" cy="119.1" rx="15.28" ry="11.82" fill="#D4A24C"/>
        </g>
        <g transform="rotate(124 70.01 268.33)">
          <circle cx="86.37" cy="269.68" r="6.97" fill="none" stroke="#6B4B1F" stroke-width="1.6"/>
          <circle cx="59.08" cy="277.45" r="3.24" fill="none" stroke="#6B4B1F" stroke-width="1.6"/>
          <circle cx="53.8" cy="270.11" r="5.41" fill="none" stroke="#6B4B1F" stroke-width="1.6"/>
          <circle cx="71.51" cy="281.97" r="4.76" fill="none" stroke="#6B4B1F" stroke-width="1.6"/>
          <ellipse cx="70.01" cy="268.33" rx="11.52" ry="8.92" fill="#D4A24C"/>
        </g>
        <g transform="rotate(10 103.66 318.35)">
          <circle cx="114.56" cy="307.09" r="4.64" fill="none" stroke="#6B4B1F" stroke-width="1.6"/>
          <circle cx="93.45" cy="332.66" r="4.4" fill="none" stroke="#6B4B1F" stroke-width="1.6"/>
          <circle cx="88.9" cy="315.02" r="3.99" fill="none" stroke="#6B4B1F" stroke-width="1.6"/>
          <ellipse cx="103.66" cy="318.35" rx="12.77" ry="9.33" fill="#D4A24C"/>
        </g>
        <g transform="rotate(156 7.67 384.69)">
          <circle cx="3.29" cy="366.9" r="3.67" fill="none" stroke="#6B4B1F" stroke-width="1.6"/>
          <circle cx="-12.15" cy="388.63" r="3.32" fill="none" stroke="#6B4B1F" stroke-width="1.6"/>
          <circle cx="2.45" cy="365.96" r="4.53" fill="none" stroke="#6B4B1F" stroke-width="1.6"/>
          <circle cx="23.7" cy="374.9" r="6.26" fill="none" stroke="#6B4B1F" stroke-width="1.6"/>
          <circle cx="3.81" cy="365.9" r="3.46" fill="none" stroke="#6B4B1F" stroke-width="1.6"/>
          <ellipse cx="7.67" cy="384.69" rx="16.05" ry="15.47" fill="#D4A24C"/>
        </g>
        <g transform="rotate(33 248.11 174.86)">
          <circle cx="234.49" cy="165.34" r="3.71" fill="none" stroke="#6B4B1F" stroke-width="1.6"/>
          <circle cx="265.31" cy="176.88" r="5.93" fill="none" stroke="#6B4B1F" stroke-width="1.6"/>
          <circle cx="262.31" cy="181.96" r="3.57" fill="none" stroke="#6B4B1F" stroke-width="1.6"/>
          <circle cx="249.27" cy="159.3" r="5.27" fill="none" stroke="#6B4B1F" stroke-width="1.6"/>
          <ellipse cx="248.11" cy="174.86" rx="13.18" ry="12.97" fill="#D4A24C"/>
        </g>
        <g transform="rotate(106 186.85 377.51)">
          <circle cx="200.72" cy="369.25" r="6" fill="none" stroke="#6B4B1F" stroke-width="1.6"/>
          <circle cx="171.15" cy="378.73" r="4.59" fill="none" stroke="#6B4B1F" stroke-width="1.6"/>
          <circle cx="203.84" cy="371.69" r="4.04" fill="none" stroke="#6B4B1F" stroke-width="1.6"/>
          <ellipse cx="186.85" cy="377.51" rx="13.31" ry="9.41" fill="#D4A24C"/>
        </g>
        <g transform="rotate(150 14.16 283.75)">
          <circle cx="-0.23" cy="303.92" r="5.17" fill="none" stroke="#6B4B1F" stroke-width="1.6"/>
          <circle cx="-11.17" cy="287.52" r="4.58" fill="none" stroke="#6B4B1F" stroke-width="1.6"/>
          <circle cx="20.12" cy="308.58" r="4.92" fill="none" stroke="#6B4B1F" stroke-width="1.6"/>
          <ellipse cx="14.16" cy="283.75" rx="21.5" ry="18.57" fill="#D4A24C"/>
        </g>
        <g transform="rotate(172 131.75 302.01)">
          <circle cx="126.11" cy="319.35" r="4.47" fill="none" stroke="#6B4B1F" stroke-width="1.6"/>
          <circle cx="116.02" cy="310.43" r="5.24" fill="none" stroke="#6B4B1F" stroke-width="1.6"/>
          <circle cx="116.53" cy="310.66" r="3.19" fill="none" stroke="#6B4B1F" stroke-width="1.6"/>
          <circle cx="132.9" cy="321.41" r="4.6" fill="none" stroke="#6B4B1F" stroke-width="1.6"/>
          <circle cx="138.27" cy="285.65" r="5.09" fill="none" stroke="#6B4B1F" stroke-width="1.6"/>
          <ellipse cx="131.75" cy="302.01" rx="14.49" ry="12.43" fill="#D4A24C"/>
        </g>
        <g transform="rotate(26 182.38 277.83)">
          <circle cx="187.17" cy="260.63" r="5.93" fill="none" stroke="#6B4B1F" stroke-width="1.6"/>
          <circle cx="197.92" cy="286.22" r="6.12" fill="none" stroke="#6B4B1F" stroke-width="1.6"/>
          <circle cx="175.24" cy="259" r="5.52" fill="none" stroke="#6B4B1F" stroke-width="1.6"/>
          <circle cx="196.6" cy="288.41" r="5.05" fill="none" stroke="#6B4B1F" stroke-width="1.6"/>
          <circle cx="199.8" cy="276.64" r="5.87" fill="none" stroke="#6B4B1F" stroke-width="1.6"/>
          <ellipse cx="182.38" cy="277.83" rx="15.18" ry="11.71" fill="#D4A24C"/>
        </g>
        <g transform="rotate(62 340.11 30.84)">
          <circle cx="321.67" cy="34.24" r="5" fill="none" stroke="#6B4B1F" stroke-width="1.6"/>
          <circle cx="323.49" cy="22.82" r="3.55" fill="none" stroke="#6B4B1F" stroke-width="1.6"/>
          <circle cx="332.96" cy="13.4" r="3.46" fill="none" stroke="#6B4B1F" stroke-width="1.6"/>
          <circle cx="323.7" cy="37.58" r="6.4" fill="none" stroke="#6B4B1F" stroke-width="1.6"/>
          <ellipse cx="340.11" cy="30.84" rx="15.07" ry="12.26" fill="#D4A24C"/>
        </g>
        <g transform="rotate(47 11.41 152.2)">
          <circle cx="3.85" cy="136.75" r="6.01" fill="none" stroke="#6B4B1F" stroke-width="1.6"/>
          <circle cx="-1.86" cy="162.31" r="5.72" fill="none" stroke="#6B4B1F" stroke-width="1.6"/>
          <circle cx="28.49" cy="149.18" r="4.13" fill="none" stroke="#6B4B1F" stroke-width="1.6"/>
          <circle cx="12.91" cy="134.83" r="5.11" fill="none" stroke="#6B4B1F" stroke-width="1.6"/>
          <ellipse cx="11.41" cy="152.2" rx="13.74" ry="12.79" fill="#D4A24C"/>
        </g>
        <g transform="rotate(81 112.11 60.64)">
          <circle cx="127.51" cy="65.41" r="5.55" fill="none" stroke="#6B4B1F" stroke-width="1.6"/>
          <circle cx="128.36" cy="58.97" r="3.56" fill="none" stroke="#6B4B1F" stroke-width="1.6"/>
          <circle cx="99.42" cy="69.36" r="3.59" fill="none" stroke="#6B4B1F" stroke-width="1.6"/>
          <circle cx="96.16" cy="68.18" r="3.89" fill="none" stroke="#6B4B1F" stroke-width="1.6"/>
          <circle cx="119.89" cy="44.64" r="4.73" fill="none" stroke="#6B4B1F" stroke-width="1.6"/>
          <ellipse cx="112.11" cy="60.64" rx="12.79" ry="13.39" fill="#D4A24C"/>
        </g>
        <g transform="rotate(137 122.89 209.98)">
          <circle cx="145.94" cy="198.42" r="4.74" fill="none" stroke="#6B4B1F" stroke-width="1.6"/>
          <circle cx="106.02" cy="226.29" r="6.07" fill="none" stroke="#6B4B1F" stroke-width="1.6"/>
          <circle cx="147.81" cy="209.12" r="5.74" fill="none" stroke="#6B4B1F" stroke-width="1.6"/>
          <circle cx="99.91" cy="204.45" r="5.93" fill="none" stroke="#6B4B1F" stroke-width="1.6"/>
          <circle cx="139.76" cy="228.22" r="4.57" fill="none" stroke="#6B4B1F" stroke-width="1.6"/>
          <ellipse cx="122.89" cy="209.98" rx="21.03" ry="17.64" fill="#D4A24C"/>
        </g>
        <g transform="rotate(159 185.11 317.18)">
          <circle cx="170.63" cy="325.12" r="4.72" fill="none" stroke="#6B4B1F" stroke-width="1.6"/>
          <circle cx="194.97" cy="307.08" r="3.09" fill="none" stroke="#6B4B1F" stroke-width="1.6"/>
          <circle cx="199.5" cy="309.13" r="4.98" fill="none" stroke="#6B4B1F" stroke-width="1.6"/>
          <circle cx="171.14" cy="314.54" r="4.84" fill="none" stroke="#6B4B1F" stroke-width="1.6"/>
          <circle cx="198.08" cy="310.06" r="5.81" fill="none" stroke="#6B4B1F" stroke-width="1.6"/>
          <ellipse cx="185.11" cy="317.18" rx="11.6" ry="8.38" fill="#D4A24C"/>
        </g>
      </g>
    </pattern>
  </defs>
  <rect width="400" height="400" fill="url(#leopard)"/>
</svg>
